Plot.

The Quileutes close in on expecting parents Edward and Bella, whose unborn child poses a threat to the Wolf Pack and the towns people of Forks. 


General
Complete name                    : The Twilight Saga Breaking Dawn Part-1[2011]ENG[BRRip]XviD-{RedDragon}.mp4
Format                           : MPEG-4
Format profile                   : Base Media / Version 2
Codec ID                         : mp42
File size                        : 805 MiB
Duration                         : 1h 57mn
Overall bit rate                 : 960 Kbps
IMDb Link                          : http://www.imdb.com/title/tt1324999/
IMDb Rating                     :  4.8/10
Encoded date                     : UTC 2012-01-29 07:53:56
Tagged date                      : UTC 2012-01-29 08:14:33


Video.

ID                               : 1
Format                           : AVC
Format/Info                      : Advanced Video Codec
Format profile                   : Main@L2.1
Format settings, CABAC           : Yes
Format settings, ReFrames        : 4 frames
Codec ID                         : avc1
Codec ID/Info                    : Advanced Video Coding
Duration                         : 1h 57mn
Bit rate mode                    : Variable
Bit rate                         : 794 Kbps
Width                            : 608 pixels
Height                           : 256 pixels
Display aspect ratio             : 2.35:1
Frame rate mode                  : Variable
Frame rate                       : 23.976 fps
Minimum frame rate               : 23.974 fps
Maximum frame rate               : 23.981 fps
Color space                      : YUV
Chroma subsampling               : 4:2:0
Bit depth                        : 8 bits
Scan type                        : Progressive
Bits/(Pixel*Frame)               : 0.213
Stream size                      : 666 MiB (83%)
Writing library                  : x264 core 112
Tagged date                      : UTC 2012-01-29 08:14:33


Audio.

ID                               : 2
Format                           : AC-3
Format/Info                      : Audio Coding 3
Mode extension                   : CM (complete main)
Codec ID                         : ac-3
Duration                         : 1h 57mn
Bit rate mode                    : Constant
Bit rate                         : 160 Kbps
Channel(s)                       : 2 channels
Channel positions                : Front: L R
Sampling rate                    : 44.1 KHz
Bit depth                        : 16 bits
Stream size                      : 134 MiB (17%)
Encoded date                     : UTC 2012-01-29 07:53:56
Tagged date                      : UTC 2012-01-29 08:14:33
